<svg width="20" height="20" viewBox="0 0 20 20" fill="none" xmlns="http://www.w3.org/2000/svg">
<path d="M9.386 0.210206C9.56154 0.0736511 9.7776 -0.000488281 10 -0.000488281C10.2224 -0.000488281 10.4385 0.0736511 10.614 0.210206L18.842 6.61021C19.2028 6.8909 19.4948 7.25035 19.6955 7.66111C19.8962 8.07186 20.0003 8.52304 20 8.98021V18.0002C20 18.5306 19.7893 19.0393 19.4142 19.4144C19.0391 19.7895 18.5304 20.0002 18 20.0002H14C13.4696 20.0002 12.9609 19.7895 12.5858 19.4144C12.2107 19.0393 12 18.5306 12 18.0002V12.0002H8V18.0002C8 18.5306 7.78929 19.0393 7.41421 19.4144C7.03914 19.7895 6.53043 20.0002 6 20.0002H2C1.46957 20.0002 0.960859 19.7895 0.585786 19.4144C0.210714 19.0393 0 18.5306 0 18.0002V8.98021C0 8.05221 0.428 7.18021 1.16 6.61021L9.386 0.210206ZM10 2.26621L2.386 8.18821C2.26545 8.28198 2.16799 8.40212 2.10108 8.5394C2.03416 8.67669 1.99959 8.82748 2 8.98021V18.0002H6V12.0002C6 11.4698 6.21071 10.9611 6.58579 10.586C6.96086 10.2109 7.46957 10.0002 8 10.0002H12C12.5304 10.0002 13.0391 10.2109 13.4142 10.586C13.7893 10.9611 14 11.4698 14 12.0002V18.0002H18V8.98021C18.0004 8.82748 17.9658 8.67669 17.8989 8.5394C17.832 8.40212 17.7345 8.28198 17.614 8.18821L10 2.26821V2.26621Z" fill="#131313"/>
</svg>
